<mxfile host="app.diagrams.net" modified="2023-05-15T07:22:33.046Z" agent="Mozilla/5.0 (Windows NT 10.0; Win64; x64; rv:109.0) Gecko/20100101 Firefox/113.0" version="21.3.0" etag="nvAJLHNRYfV2ZmVquISh" type="github">
  <diagram name="Page-1" id="4GbQHJ1xNVlyAcllYN6T">
    <mxGraphModel>
      <root>
        <mxCell id="0" />
        <mxCell id="1" parent="0" />
      </root>
    </mxGraphModel>
  </diagram>
</mxfile>
